<svg width="38" height="41" fill="none" xmlns="http://www.w3.org/2000/svg"><path d="M37.785 11.43a1.225 1.225 0 0 0-.423-.403 1.11 1.11 0 0 0-.547-.146H11.486L9.57 3.676C8.817.838 7.03.532 6.297.532H1.185C.53.532 0 1.11 0 1.824c0 .713.53 1.291 1.185 1.291h5.112c.162 0 .655 0 .992 1.268L13.884 30.8c.144.557.61.942 1.141.942h16.111c.5 0 .947-.341 1.115-.854L37.93 12.61a1.39 1.39 0 0 0-.145-1.18Zm-7.483 17.73H15.925l-3.773-15.695H35.13L30.302 29.16Zm-2.35 5.2c-1.649 0-2.984 1.455-2.984 3.252 0 1.796 1.335 3.251 2.983 3.251 1.649 0 2.984-1.455 2.984-3.251 0-1.797-1.335-3.252-2.983-3.252Zm-10.742 0c-1.648 0-2.984 1.455-2.984 3.252 0 1.796 1.336 3.251 2.984 3.251s2.984-1.455 2.984-3.251c0-1.797-1.336-3.252-2.984-3.252Z" fill="#fff"/></svg>