<svg width="91" height="85" fill="none" xmlns="http://www.w3.org/2000/svg"><path d="M1.75 35c-.367 0-.667-.117-.9-.35-.233-.233-.35-.533-.35-.9V1.25C.5.883.617.583.85.35c.233-.233.533-.35.9-.35h6.3c.367 0 .667.117.9.35.233.233.35.533.35.9v11.1L18.55.95c.133-.2.35-.4.65-.6.333-.233.767-.35 1.3-.35h7.2c.3 0 .55.117.75.35.2.2.3.433.3.7a.93.93 0 0 1-.2.6L16.6 16.75l12.9 16.6c.133.133.2.333.2.6 0 .267-.117.517-.35.75-.2.2-.433.3-.7.3H21.2c-.6 0-1.067-.133-1.4-.4-.3-.267-.5-.467-.6-.6L9.3 21.65v12.1c0 .367-.117.667-.35.9-.233.233-.533.35-.9.35h-6.3Zm42.14.5c-2.8 0-5.166-.45-7.1-1.35-1.9-.9-3.366-2.183-4.4-3.85-1-1.7-1.566-3.717-1.7-6.05a45.507 45.507 0 0 1-.05-2.25c0-.867.017-1.617.05-2.25.134-2.367.734-4.383 1.8-6.05 1.067-1.667 2.55-2.95 4.45-3.85 1.934-.9 4.25-1.35 6.95-1.35 2.734 0 5.05.45 6.95 1.35 1.934.9 3.434 2.183 4.5 3.85 1.067 1.667 1.667 3.683 1.8 6.05.034.633.05 1.383.05 2.25 0 .833-.016 1.583-.05 2.25-.133 2.333-.716 4.35-1.75 6.05-1 1.667-2.466 2.95-4.4 3.85-1.9.9-4.266 1.35-7.1 1.35Zm0-6.1c1.5 0 2.584-.45 3.25-1.35.7-.9 1.1-2.25 1.2-4.05.034-.5.05-1.167.05-2s-.016-1.5-.05-2c-.1-1.767-.5-3.1-1.2-4-.666-.933-1.75-1.4-3.25-1.4-1.466 0-2.55.467-3.25 1.4-.7.9-1.083 2.233-1.15 4-.033.5-.05 1.167-.05 2s.017 1.5.05 2c.067 1.8.45 3.15 1.15 4.05.7.9 1.784 1.35 3.25 1.35ZM63.359 35c-.366 0-.666-.117-.9-.35-.233-.233-.35-.533-.35-.9v-23.5c0-.367.117-.667.35-.9.233-.233.534-.35.9-.35h5.75c.367 0 .667.117.9.35.234.233.35.533.35.9v1.9c.867-1.033 2-1.9 3.4-2.6 1.4-.7 3.05-1.05 4.95-1.05 1.933 0 3.633.433 5.1 1.3 1.5.867 2.667 2.15 3.5 3.85.867 1.667 1.3 3.717 1.3 6.15v13.95c0 .367-.133.667-.4.9-.233.233-.516.35-.85.35h-6.3c-.333 0-.633-.117-.9-.35-.233-.233-.35-.533-.35-.9V20.1c0-1.567-.383-2.767-1.15-3.6-.733-.867-1.833-1.3-3.3-1.3-1.367 0-2.467.433-3.3 1.3-.8.833-1.2 2.033-1.2 3.6v13.65c0 .367-.133.667-.4.9-.233.233-.516.35-.85.35h-6.25ZM1.75 75c-.367 0-.667-.117-.9-.35-.233-.233-.35-.533-.35-.9v-32.5c0-.367.117-.667.35-.9.233-.233.533-.35.9-.35h13c3.267 0 6.05.533 8.35 1.6 2.3 1.033 4.067 2.567 5.3 4.6 1.233 2 1.9 4.483 2 7.45.033 1.467.05 2.75.05 3.85s-.017 2.367-.05 3.8c-.133 3.1-.8 5.667-2 7.7-1.167 2.033-2.883 3.55-5.15 4.55C21.017 74.517 18.267 75 15 75H1.75Zm7.7-7.2h5.3c1.433 0 2.617-.217 3.55-.65A4.49 4.49 0 0 0 20.45 65c.5-.967.767-2.233.8-3.8.067-.967.1-1.833.1-2.6a26.73 26.73 0 0 0 0-2.3c0-.767-.033-1.617-.1-2.55-.067-2.267-.667-3.917-1.8-4.95-1.1-1.067-2.75-1.6-4.95-1.6H9.45v20.6Zm38.291 7.7c-3.933 0-7.067-1.067-9.4-3.2s-3.55-5.3-3.65-9.5v-1.75c.1-2.633.683-4.883 1.75-6.75 1.1-1.9 2.6-3.333 4.5-4.3 1.933-1 4.183-1.5 6.75-1.5 2.933 0 5.35.583 7.25 1.75 1.933 1.167 3.383 2.75 4.35 4.75.967 2 1.45 4.283 1.45 6.85v1.2c0 .367-.133.667-.4.9-.233.233-.517.35-.85.35h-16v.35c.033.967.2 1.85.5 2.65.3.8.767 1.433 1.4 1.9.633.467 1.4.7 2.3.7.667 0 1.217-.1 1.65-.3.467-.233.85-.483 1.15-.75.3-.3.533-.55.7-.75.3-.333.533-.533.7-.6.2-.1.5-.15.9-.15h6.2c.333 0 .6.1.8.3.233.167.333.417.3.75-.033.567-.317 1.25-.85 2.05-.533.8-1.317 1.6-2.35 2.4-1 .767-2.267 1.4-3.8 1.9s-3.317.75-5.35.75Zm-4.25-16.15h8.45v-.1c0-1.067-.167-2-.5-2.8-.3-.8-.783-1.417-1.45-1.85-.633-.433-1.4-.65-2.3-.65-.9 0-1.667.217-2.3.65-.6.433-1.067 1.05-1.4 1.85-.333.8-.5 1.733-.5 2.8v.1ZM69.156 84.5c-.3 0-.55-.1-.75-.3-.2-.2-.3-.45-.3-.75v-.3c.033-.1.083-.217.15-.35l3.9-9.4-9.6-22.7c-.1-.233-.15-.433-.15-.6.066-.3.2-.55.4-.75.2-.233.45-.35.75-.35h5.7c.433 0 .75.117.95.35.233.2.383.433.45.7l5.75 14.55 5.85-14.55c.133-.267.3-.5.5-.7.233-.233.566-.35 1-.35h5.6c.3 0 .55.117.75.35.233.2.35.433.35.7 0 .167-.05.383-.15.65l-14.15 32.75c-.1.267-.267.5-.5.7-.234.233-.567.35-1 .35h-5.5Z" fill="#fff"/></svg>