<svg width="27" height="29" fill="none" xmlns="http://www.w3.org/2000/svg"><path d="M17.595 16.431a9.92 9.92 0 0 0 1.905-5.835c0-1.969-.572-3.893-1.643-5.53a9.797 9.797 0 0 0-4.376-3.667A9.564 9.564 0 0 0 7.848.833a9.69 9.69 0 0 0-4.992 2.724A10.021 10.021 0 0 0 .187 8.654a10.15 10.15 0 0 0 .555 5.752 9.913 9.913 0 0 0 3.591 4.468A9.608 9.608 0 0 0 9.75 20.55c2.145 0 4.11-.735 5.715-1.945l9.42 9.603L27 26.049l-9.405-9.617ZM9.75 17.488C6.015 17.488 3 14.41 3 10.596c0-3.813 3.015-6.892 6.75-6.892s6.75 3.079 6.75 6.892c0 3.814-3.015 6.892-6.75 6.892Z" fill="#fff"/></svg>