<svg width="19" height="21" viewBox="0 0 19 21" fill="none" xmlns="http://www.w3.org/2000/svg">
<path d="M9.50012 7.23352e-09C10.3527 -5.63596e-05 11.173 0.329315 11.7927 0.920548C12.4124 1.51178 12.7846 2.32005 12.8329 3.17956L12.838 3.37037H18.23C18.4251 3.37043 18.613 3.44529 18.7556 3.57982C18.8982 3.71436 18.9849 3.89853 18.9982 4.09513C19.0115 4.29174 18.9504 4.48611 18.8272 4.63898C18.7041 4.79184 18.5281 4.89181 18.3347 4.91867L18.23 4.92593H17.4124L16.0978 18.4281C16.032 19.1013 15.7313 19.7289 15.2495 20.1989C14.7677 20.6688 14.1361 20.9506 13.4676 20.9938L13.2868 21H5.71342C5.04324 21 4.3949 20.7593 3.88427 20.321C3.37364 19.8828 3.034 19.2754 2.92604 18.6076L2.90241 18.4271L1.58678 4.92593H0.77028C0.584142 4.92592 0.404302 4.85785 0.26402 4.73432C0.123739 4.61078 0.032504 4.44013 0.00718925 4.25393L0 4.14815C7.84956e-06 3.9602 0.0674176 3.77861 0.189763 3.63696C0.312109 3.49531 0.481113 3.40319 0.665522 3.37763L0.77028 3.37037H6.16224C6.16224 2.47649 6.51391 1.61923 7.13988 0.987158C7.76585 0.355091 8.61486 7.23352e-09 9.50012 7.23352e-09ZM15.8647 4.92593H3.13453L4.43578 18.2747C4.4646 18.5725 4.59459 18.8511 4.80369 19.0632C5.0128 19.2753 5.28814 19.4078 5.58299 19.4382L5.71342 19.4444H13.2868C13.903 19.4444 14.4258 19.0037 14.5449 18.4053L14.5655 18.2747L15.8637 4.92593H15.8647ZM11.2974 7.77778C11.4836 7.77779 11.6634 7.84585 11.8037 7.96939C11.944 8.09292 12.0352 8.26357 12.0605 8.44978L12.0677 8.55556V15.8148C12.0677 16.0119 11.9935 16.2016 11.8603 16.3456C11.727 16.4896 11.5446 16.5771 11.3499 16.5905C11.1552 16.604 10.9627 16.5423 10.8113 16.4179C10.6599 16.2936 10.5609 16.1158 10.5343 15.9206L10.5272 15.8148V8.55556C10.5272 8.34928 10.6083 8.15145 10.7528 8.00558C10.8972 7.85972 11.0931 7.77778 11.2974 7.77778ZM7.7028 7.77778C7.88894 7.77779 8.06878 7.84585 8.20906 7.96939C8.34934 8.09292 8.44057 8.26357 8.46589 8.44978L8.47308 8.55556V15.8148C8.47302 16.0119 8.39888 16.2016 8.26564 16.3456C8.13241 16.4896 7.95001 16.5771 7.7553 16.5905C7.56059 16.604 7.36809 16.5423 7.2167 16.4179C7.06531 16.2936 6.96631 16.1158 6.93971 15.9206L6.93252 15.8148V8.55556C6.93252 8.34928 7.01367 8.15145 7.15813 8.00558C7.30258 7.85972 7.49851 7.77778 7.7028 7.77778ZM9.50012 1.55556C9.04905 1.55557 8.61448 1.72684 8.28267 2.03537C7.95086 2.3439 7.74608 2.76713 7.70896 3.22104L7.7028 3.37037H11.2974C11.2974 2.88905 11.1081 2.42745 10.771 2.0871C10.434 1.74676 9.9768 1.55556 9.50012 1.55556Z" fill="#383838"/>
</svg>
