<svg width="38" height="41" viewBox="0 0 38 41" fill="none" xmlns="http://www.w3.org/2000/svg">
<path d="M37.7849 11.4302C37.6754 11.2608 37.5302 11.1225 37.3615 11.027C37.1927 10.9315 37.0054 10.8816 36.8153 10.8814H11.4861L9.56878 3.67571C8.81689 0.838291 7.03022 0.531982 6.29742 0.531982H1.18516C0.529904 0.531982 0 1.11013 0 1.82355C0 2.53697 0.530501 3.11508 1.18512 3.11508H6.29679C6.4585 3.11508 6.95201 3.11508 7.28861 4.38258L13.8844 30.7999C14.0276 31.3572 14.4936 31.7422 15.0253 31.7422H31.136C31.6361 31.7422 32.0825 31.4008 32.2514 30.8877L37.93 12.6099C38.0606 12.2139 38.0063 11.773 37.7849 11.4302ZM30.302 29.1598H15.9248L12.1523 13.4652H35.1303L30.302 29.1598ZM27.9515 34.3599C26.3033 34.3599 24.9678 35.8153 24.9678 37.6116C24.9678 39.4078 26.3033 40.8632 27.9515 40.8632C29.5997 40.8632 30.9352 39.4078 30.9352 37.6116C30.9352 35.8153 29.5997 34.3599 27.9515 34.3599ZM17.2102 34.3599C15.562 34.3599 14.2265 35.8153 14.2265 37.6116C14.2265 39.4078 15.562 40.8632 17.2102 40.8632C18.8584 40.8632 20.1939 39.4078 20.1939 37.6116C20.1939 35.8153 18.8584 34.3599 17.2102 34.3599Z" fill="white"/>
</svg>
