<svg width="91" height="85" viewBox="0 0 91 85" fill="none" xmlns="http://www.w3.org/2000/svg">
<path d="M1.75 35C1.38333 35 1.08333 34.8833 0.85 34.65C0.616667 34.4167 0.5 34.1167 0.5 33.75V1.25C0.5 0.883331 0.616667 0.583331 0.85 0.349999C1.08333 0.116665 1.38333 -2.38419e-06 1.75 -2.38419e-06H8.05C8.41667 -2.38419e-06 8.71667 0.116665 8.95 0.349999C9.18333 0.583331 9.3 0.883331 9.3 1.25V12.35L18.55 0.949997C18.6833 0.749998 18.9 0.549998 19.2 0.349999C19.5333 0.116665 19.9667 -2.38419e-06 20.5 -2.38419e-06H27.7C28 -2.38419e-06 28.25 0.116665 28.45 0.349999C28.65 0.549998 28.75 0.783332 28.75 1.05C28.75 1.28333 28.6833 1.48333 28.55 1.65L16.6 16.75L29.5 33.35C29.6333 33.4833 29.7 33.6833 29.7 33.95C29.7 34.2167 29.5833 34.4667 29.35 34.7C29.15 34.9 28.9167 35 28.65 35H21.2C20.6 35 20.1333 34.8667 19.8 34.6C19.5 34.3333 19.3 34.1333 19.2 34L9.3 21.65V33.75C9.3 34.1167 9.18333 34.4167 8.95 34.65C8.71667 34.8833 8.41667 35 8.05 35H1.75ZM43.8906 35.5C41.0906 35.5 38.724 35.05 36.7906 34.15C34.8906 33.25 33.424 31.9667 32.3906 30.3C31.3906 28.6 30.824 26.5833 30.6906 24.25C30.6573 23.5833 30.6406 22.8333 30.6406 22C30.6406 21.1333 30.6573 20.3833 30.6906 19.75C30.824 17.3833 31.424 15.3667 32.4906 13.7C33.5573 12.0333 35.0406 10.75 36.9406 9.85C38.874 8.95 41.1906 8.5 43.8906 8.5C46.624 8.5 48.9406 8.95 50.8406 9.85C52.774 10.75 54.274 12.0333 55.3406 13.7C56.4073 15.3667 57.0073 17.3833 57.1406 19.75C57.174 20.3833 57.1906 21.1333 57.1906 22C57.1906 22.8333 57.174 23.5833 57.1406 24.25C57.0073 26.5833 56.424 28.6 55.3906 30.3C54.3906 31.9667 52.924 33.25 50.9906 34.15C49.0906 35.05 46.724 35.5 43.8906 35.5ZM43.8906 29.4C45.3906 29.4 46.474 28.95 47.1406 28.05C47.8406 27.15 48.2406 25.8 48.3406 24C48.374 23.5 48.3906 22.8333 48.3906 22C48.3906 21.1667 48.374 20.5 48.3406 20C48.2406 18.2333 47.8406 16.9 47.1406 16C46.474 15.0667 45.3906 14.6 43.8906 14.6C42.424 14.6 41.3406 15.0667 40.6406 16C39.9406 16.9 39.5573 18.2333 39.4906 20C39.4573 20.5 39.4406 21.1667 39.4406 22C39.4406 22.8333 39.4573 23.5 39.4906 24C39.5573 25.8 39.9406 27.15 40.6406 28.05C41.3406 28.95 42.424 29.4 43.8906 29.4ZM63.3582 35C62.9915 35 62.6915 34.8833 62.4582 34.65C62.2249 34.4167 62.1082 34.1167 62.1082 33.75V10.25C62.1082 9.88333 62.2249 9.58333 62.4582 9.35C62.6915 9.11667 62.9915 9 63.3582 9H69.1082C69.4749 9 69.7749 9.11667 70.0082 9.35C70.2415 9.58333 70.3582 9.88333 70.3582 10.25V12.15C71.2249 11.1167 72.3582 10.25 73.7582 9.55C75.1582 8.85 76.8082 8.5 78.7082 8.5C80.6415 8.5 82.3415 8.93333 83.8082 9.8C85.3082 10.6667 86.4749 11.95 87.3082 13.65C88.1749 15.3167 88.6082 17.3667 88.6082 19.8V33.75C88.6082 34.1167 88.4749 34.4167 88.2082 34.65C87.9749 34.8833 87.6915 35 87.3582 35H81.0582C80.7249 35 80.4249 34.8833 80.1582 34.65C79.9249 34.4167 79.8082 34.1167 79.8082 33.75V20.1C79.8082 18.5333 79.4249 17.3333 78.6582 16.5C77.9249 15.6333 76.8249 15.2 75.3582 15.2C73.9915 15.2 72.8915 15.6333 72.0582 16.5C71.2582 17.3333 70.8582 18.5333 70.8582 20.1V33.75C70.8582 34.1167 70.7249 34.4167 70.4582 34.65C70.2249 34.8833 69.9415 35 69.6082 35H63.3582ZM1.75 75C1.38333 75 1.08333 74.8833 0.85 74.65C0.616667 74.4167 0.5 74.1167 0.5 73.75V41.25C0.5 40.8833 0.616667 40.5833 0.85 40.35C1.08333 40.1167 1.38333 40 1.75 40H14.75C18.0167 40 20.8 40.5333 23.1 41.6C25.4 42.6333 27.1667 44.1667 28.4 46.2C29.6333 48.2 30.3 50.6833 30.4 53.65C30.4333 55.1167 30.45 56.4 30.45 57.5C30.45 58.6 30.4333 59.8667 30.4 61.3C30.2667 64.4 29.6 66.9667 28.4 69C27.2333 71.0333 25.5167 72.55 23.25 73.55C21.0167 74.5167 18.2667 75 15 75H1.75ZM9.45 67.8H14.75C16.1833 67.8 17.3667 67.5833 18.3 67.15C19.2667 66.6833 19.9833 65.9667 20.45 65C20.95 64.0333 21.2167 62.7667 21.25 61.2C21.3167 60.2333 21.35 59.3667 21.35 58.6C21.3833 57.8333 21.3833 57.0667 21.35 56.3C21.35 55.5333 21.3167 54.6833 21.25 53.75C21.1833 51.4833 20.5833 49.8333 19.45 48.8C18.35 47.7333 16.7 47.2 14.5 47.2H9.45V67.8ZM47.741 75.5C43.8077 75.5 40.6743 74.4333 38.341 72.3C36.0077 70.1667 34.791 67 34.691 62.8C34.691 62.5667 34.691 62.2667 34.691 61.9C34.691 61.5333 34.691 61.25 34.691 61.05C34.791 58.4167 35.3743 56.1667 36.441 54.3C37.541 52.4 39.041 50.9667 40.941 50C42.8743 49 45.1243 48.5 47.691 48.5C50.6243 48.5 53.041 49.0833 54.941 50.25C56.8744 51.4167 58.3244 53 59.291 55C60.2577 57 60.741 59.2833 60.741 61.85V63.05C60.741 63.4167 60.6077 63.7167 60.341 63.95C60.1077 64.1833 59.8244 64.3 59.491 64.3H43.491C43.491 64.3333 43.491 64.3833 43.491 64.45C43.491 64.5167 43.491 64.5833 43.491 64.65C43.5243 65.6167 43.691 66.5 43.991 67.3C44.291 68.1 44.7577 68.7333 45.391 69.2C46.0243 69.6667 46.791 69.9 47.691 69.9C48.3577 69.9 48.9077 69.8 49.341 69.6C49.8077 69.3667 50.191 69.1167 50.491 68.85C50.791 68.55 51.0243 68.3 51.191 68.1C51.491 67.7667 51.7243 67.5667 51.891 67.5C52.091 67.4 52.391 67.35 52.791 67.35H58.991C59.3244 67.35 59.591 67.45 59.791 67.65C60.0244 67.8167 60.1244 68.0667 60.091 68.4C60.0577 68.9667 59.7744 69.65 59.241 70.45C58.7077 71.25 57.9243 72.05 56.891 72.85C55.891 73.6167 54.6243 74.25 53.091 74.75C51.5577 75.25 49.7743 75.5 47.741 75.5ZM43.491 59.35H51.941V59.25C51.941 58.1833 51.7743 57.25 51.441 56.45C51.141 55.65 50.6577 55.0333 49.991 54.6C49.3577 54.1667 48.591 53.95 47.691 53.95C46.791 53.95 46.0243 54.1667 45.391 54.6C44.791 55.0333 44.3243 55.65 43.991 56.45C43.6577 57.25 43.491 58.1833 43.491 59.25V59.35ZM69.1555 84.5C68.8555 84.5 68.6055 84.4 68.4055 84.2C68.2055 84 68.1055 83.75 68.1055 83.45C68.1055 83.3833 68.1055 83.2833 68.1055 83.15C68.1388 83.05 68.1888 82.9333 68.2555 82.8L72.1555 73.4L62.5555 50.7C62.4555 50.4667 62.4055 50.2667 62.4055 50.1C62.4721 49.8 62.6055 49.55 62.8055 49.35C63.0055 49.1167 63.2555 49 63.5555 49H69.2555C69.6888 49 70.0055 49.1167 70.2055 49.35C70.4388 49.55 70.5888 49.7833 70.6555 50.05L76.4055 64.6L82.2555 50.05C82.3888 49.7833 82.5555 49.55 82.7555 49.35C82.9888 49.1167 83.3221 49 83.7555 49H89.3555C89.6555 49 89.9055 49.1167 90.1055 49.35C90.3388 49.55 90.4555 49.7833 90.4555 50.05C90.4555 50.2167 90.4055 50.4333 90.3055 50.7L76.1555 83.45C76.0555 83.7167 75.8888 83.95 75.6555 84.15C75.4221 84.3833 75.0888 84.5 74.6555 84.5H69.1555Z" fill="white"/>
</svg>
