<svg width="27" height="29" viewBox="0 0 27 29" fill="none" xmlns="http://www.w3.org/2000/svg">
<path d="M17.595 16.4315C18.8279 14.7461 19.4959 12.6999 19.5 10.5963C19.5 8.62744 18.9282 6.70274 17.8568 5.06566C16.7855 3.42857 15.2627 2.15261 13.4812 1.39914C11.6996 0.645671 9.73919 0.448529 7.84787 0.832644C5.95656 1.21676 4.21927 2.16488 2.85571 3.55711C1.49215 4.94934 0.563554 6.72315 0.187348 8.65423C-0.188858 10.5853 0.00422452 12.5869 0.742179 14.406C1.48013 16.225 2.72982 17.7798 4.33319 18.8736C5.93657 19.9675 7.82163 20.5513 9.75 20.5513C11.895 20.5513 13.86 19.8162 15.465 18.6063L24.885 28.209L27 26.0496L17.595 16.4315ZM9.75 17.4883C6.015 17.4883 3 14.4099 3 10.5963C3 6.78282 6.015 3.70444 9.75 3.70444C13.485 3.70444 16.5 6.78282 16.5 10.5963C16.5 14.4099 13.485 17.4883 9.75 17.4883Z" fill="white"/>
</svg>
